# xmcd
#
# Track frame offsets:
#	150
#	11618
#	23279
#	38609
#	58048
#	75849
#	96667
#	110537
#	121939
#	139641
#	151871
#	167890
#	183863
#	201772
#	220304
#	238415
#	250907
#	263892
#	286496
#	303002
#	316663
#	324230
#	336705
#
# Disc length: 4623 seconds
#
# Revision: 1
# Processed by: cddbd v1.5.2PL0 Copyright (c) Steve Scherf et al.
# Submitted via: audiograbber 1.83.01
#
DISCID=37120d17
DTITLE=NCM - NCM 038
DYEAR=2006
DGENRE=Country
TTITLE0=Black, White, Tan  - Nicole C Mullen
TTITLE1=That큦 Enough - Clint Miller
TTITLE2=What You Leave Behind  - Sarah Kelly
TTITLE3=From Heaven큦 Poit Of View  - Jess Dixon
TTITLE4=When It큦 Over  - Adie
TTITLE5=You Lift Me  - Lawson Spiller
TTITLE6=Tonight  - Jeremy Camp
TTITLE7=Full House  - Karin Wright
TTITLE8=Watching You  - Rodney Atkins
TTITLE9=The Lord Jesus Reigns  - Wes Davis
TTITLE10=Sing Mary Sing  - Mindy
TTITLE11=Christmas Boogie  - Dave Sheriff
TTITLE12=There큦 A New Kid In Town - Captain큦 Crew With Connie Bateman
TTITLE13=Offering - Paul Baloche
TTITLE14=His Promise To Me  - Lisa Meadows
TTITLE15=Once A Year  - Jerzy
TTITLE16=What Child Is This  - Hammond Virtual Symphony
TTITLE17=Christmas In The Ozarks  - Captain T
TTITLE18=Changed By A Baby Boy  - Marshall Hall and Gaither Vocal Band
TTITLE19=Love Came Down At Christmas  - Moya Brennan
TTITLE20=Joy To The World  - George Hamilton Iv
TTITLE21=Emmanuel Has Gone  - Don Moen
TTITLE22=O Little Town Of Bethlehem  - Sandi Patty and Amy Grant
EXTD=
EXTT0=
EXTT1=
EXTT2=
EXTT3=
EXTT4=
EXTT5=
EXTT6=
EXTT7=
EXTT8=
EXTT9=
EXTT10=
EXTT11=
EXTT12=
EXTT13=
EXTT14=
EXTT15=
EXTT16=
EXTT17=
EXTT18=
EXTT19=
EXTT20=
EXTT21=
EXTT22=
PLAYORDER=
